Coordinates
version=1
nRows=6
nColumns=36
inDegrees=yes

Units are S.I. units (second, meters, Newtons, ...)
If the header above contains a line with 'inDegrees', this indicates whether rotational values are in degrees (yes) or radians (no).

endheader
time	pelvis_tilt	pelvis_list	pelvis_rotation	pelvis_tx	pelvis_ty	pelvis_tz	hip_flexion_r	hip_adduction_r	hip_rotation_r	knee_angle_r	knee_angle_r_beta	ankle_angle_r	subtalar_angle_r	mtp_angle_r	hip_flexion_l	hip_adduction_l	hip_rotation_l	knee_angle_l	knee_angle_l_beta	ankle_angle_l	subtalar_angle_l	mtp_angle_l	lumbar_extension	lumbar_bending	lumbar_rotation	arm_flex_r	arm_add_r	arm_rot_r	elbow_flex_r	pro_sup_r	arm_flex_l	arm_add_l	arm_rot_l	elbow_flex_l	pro_sup_l
      3.23333330	     -1.90480517	      8.21727024	      3.29869226	     -0.14665172	      0.93098604	      0.09889759	      8.04456481	     -1.75338768	     -1.38287067	     11.71125407	      0.20439994	     15.29018261	      4.28774711	     -7.49999987	     20.03716810	     -6.31004162	    -20.26376096	      3.23565847	      0.05647289	      1.56380206	      9.47392867	     -7.49999987	     -3.59860060	     -2.28035224	     -1.04695783	     18.17987930	     -7.47316876	   -306.16214869	    110.92799406	     77.73952918	      7.05589895	     -1.21398162	     27.21728842	     89.91008315	     81.71481472
      3.25000000	     -1.46370613	      8.37917866	      3.10528731	     -0.14813638	      0.92919252	      0.09816941	      7.57868062	     -1.94321224	     -1.44350037	     11.54159457	      0.20143883	     14.87488938	      3.94535498	     -7.49999987	     19.59698502	     -6.20915299	    -20.59490419	      2.70526444	      0.04721577	      1.13629911	      9.78684066	     -7.49999987	     -4.27696842	     -2.18896843	     -0.72880790	     20.37243620	     -5.46166141	   -301.21758502	    113.72931010	     79.25442273	     10.92282371	      0.18031724	     32.36911018	     91.81562209	     78.21335983
      3.26666670	     -1.14117618	      8.49571002	      2.92651874	     -0.14810794	      0.93258227	      0.09915390	      7.22669908	     -2.06893636	     -1.45193135	     11.44107169	      0.19968437	     14.63758934	      3.96490827	     -7.49999987	     19.30552158	     -6.21383636	    -20.92589213	      2.47950215	      0.04327548	      0.38382373	     10.14554947	     -7.49999987	     -4.77148490	     -2.06640160	     -0.67066262	     22.56112952	     -3.27964275	   -297.78990831	    114.78459487	     79.60954590	     14.39897568	      1.37913876	     36.12288836	     94.04518986	     78.44317794
      3.28333330	     -0.59318856	      8.50367676	      3.06240879	     -0.14922374	      0.92784761	      0.09895469	      6.64495172	     -2.04436565	     -1.46716257	     11.48359907	      0.20042661	     14.63750646	      3.76786174	     -7.49999987	     19.01807524	     -6.33586418	    -21.18088260	      2.81113959	      0.04906364	      0.11950745	     10.52453009	     -7.49999987	     -5.70015365	     -1.81672114	     -0.47131937	     24.92926046	     -1.23746336	   -295.59285614	    115.88726614	     80.16615923	     17.51165040	      2.36008693	     40.65659687	     98.38670401	     78.87310150
      3.30000000	     -0.29230689	      8.55190675	      3.29660689	     -0.14703704	      0.92778105	      0.09873124	      6.36110422	     -2.11378859	     -1.61704067	     11.77314359	      0.20548012	     14.81785440	      3.77083686	     -7.49999987	     18.94612675	     -6.40187454	    -20.79209567	      3.31260684	      0.05781590	     -0.21631525	     10.43965303	     -7.49999987	     -6.35824274	     -1.64056101	      0.11224317	     26.27786004	      0.67789760	   -294.88158712	    116.51180518	     85.51665925	     20.16294117	      3.32248717	     44.89440680	    102.32978550	     80.44125079
      3.31666670	     -0.26276613	      8.54673822	      3.28015900	     -0.14957620	      0.93395295	      0.10053082	      6.42201889	     -2.08652707	     -1.62450929	     11.94314696	      0.20844724	     14.63634744	      3.90384558	     -7.49999987	     19.12987880	     -6.57572987	    -20.55963422	      3.66934774	      0.06404220	     -0.95071275	     10.86093591	     -7.49999987	     -6.73022499	     -1.37435939	      0.71954191	     28.03408441	      2.35894212	   -293.75093634	    116.60367559	     85.69919635	     22.39577765	      4.26689138	     48.54674032	    105.85416649	     80.79945711
